<svg xmlns="http://www.w3.org/2000/svg" viewBox="0 0 760 350" width="760" height="350" font-family="-apple-system,'Segoe UI','PingFang SC','Microsoft YaHei','Noto Sans CJK SC',sans-serif" font-size="13" fill="#1f2933">
<rect width="760" height="350" rx="8" fill="#ffffff"/>
<text x="20" y="28" font-size="16" font-weight="600">扰动相机输入后的成功率（LIBERO-Spatial，每组 100 回合，95% 置信区间）</text>
<rect x="20" y="42" width="12" height="12" rx="2" fill="#9ca3af"/><text x="37" y="53" fill="#6b7280">正常</text>
<rect x="81" y="42" width="12" height="12" rx="2" fill="#86efac"/><text x="98" y="53" fill="#6b7280">加高斯噪声</text>
<rect x="181" y="42" width="12" height="12" rx="2" fill="#14b8a6"/><text x="198" y="53" fill="#6b7280">冻结首帧</text>
<rect x="268" y="42" width="12" height="12" rx="2" fill="#60a5fa"/><text x="285" y="53" fill="#6b7280">只涂主视角</text>
<rect x="368" y="42" width="12" height="12" rx="2" fill="#f59e0b"/><text x="385" y="53" fill="#6b7280">只涂腕部</text>
<rect x="455" y="42" width="12" height="12" rx="2" fill="#111827"/><text x="472" y="53" fill="#6b7280">全涂黑</text>
<line x1="56" y1="306.0" x2="730" y2="306.0" stroke="#e5e7eb"/>
<text x="48" y="310.0" text-anchor="end" fill="#6b7280">0%</text>
<line x1="56" y1="252.5" x2="730" y2="252.5" stroke="#e5e7eb"/>
<text x="48" y="256.5" text-anchor="end" fill="#6b7280">25%</text>
<line x1="56" y1="199.0" x2="730" y2="199.0" stroke="#e5e7eb"/>
<text x="48" y="203.0" text-anchor="end" fill="#6b7280">50%</text>
<line x1="56" y1="145.5" x2="730" y2="145.5" stroke="#e5e7eb"/>
<text x="48" y="149.5" text-anchor="end" fill="#6b7280">75%</text>
<line x1="56" y1="92.0" x2="730" y2="92.0" stroke="#e5e7eb"/>
<text x="48" y="96.0" text-anchor="end" fill="#6b7280">100%</text>
<rect x="77.8" y="143.4" width="26" height="162.6" rx="2" fill="#9ca3af"/>
<path d="M90.8 161.3 V125.4 M86.8 125.4 h8 M86.8 161.3 h8" stroke="#6b7280" stroke-width="1.2"/>
<text x="90.8" y="120.4" text-anchor="middle" font-size="12" font-weight="600">76</text>
<rect x="108.8" y="136.9" width="26" height="169.1" rx="2" fill="#86efac"/>
<path d="M121.8 154.0 V119.9 M117.8 119.9 h8 M117.8 154.0 h8" stroke="#6b7280" stroke-width="1.2"/>
<text x="121.8" y="114.9" text-anchor="middle" font-size="12" font-weight="600">79</text>
<rect x="139.8" y="154.1" width="26" height="151.9" rx="2" fill="#14b8a6"/>
<path d="M152.8 173.1 V135.0 M148.8 135.0 h8 M148.8 173.1 h8" stroke="#6b7280" stroke-width="1.2"/>
<text x="152.8" y="130.0" text-anchor="middle" font-size="12" font-weight="600">71</text>
<rect x="170.8" y="139.1" width="26" height="166.9" rx="2" fill="#60a5fa"/>
<path d="M183.8 156.5 V121.7 M179.8 121.7 h8 M179.8 156.5 h8" stroke="#6b7280" stroke-width="1.2"/>
<text x="183.8" y="116.7" text-anchor="middle" font-size="12" font-weight="600">78</text>
<rect x="201.8" y="179.7" width="26" height="126.3" rx="2" fill="#f59e0b"/>
<path d="M214.8 200.4 V159.1 M210.8 159.1 h8 M210.8 200.4 h8" stroke="#6b7280" stroke-width="1.2"/>
<text x="214.8" y="154.1" text-anchor="middle" font-size="12" font-weight="600">59</text>
<rect x="232.8" y="186.2" width="26" height="119.8" rx="2" fill="#111827"/>
<path d="M245.8 207.0 V165.3 M241.8 165.3 h8 M241.8 207.0 h8" stroke="#6b7280" stroke-width="1.2"/>
<text x="245.8" y="160.3" text-anchor="middle" font-size="12" font-weight="600">56</text>
<text x="168.3" y="334" text-anchor="middle" font-weight="600">π0</text>
<rect x="302.5" y="94.1" width="26" height="211.9" rx="2" fill="#9ca3af"/>
<path d="M315.5 98.3 V92.0 M311.5 92.0 h8 M311.5 98.3 h8" stroke="#6b7280" stroke-width="1.2"/>
<text x="315.5" y="87.0" text-anchor="middle" font-size="12" font-weight="600">99</text>
<rect x="333.5" y="94.1" width="26" height="211.9" rx="2" fill="#86efac"/>
<path d="M346.5 98.3 V92.0 M342.5 92.0 h8 M342.5 98.3 h8" stroke="#6b7280" stroke-width="1.2"/>
<text x="346.5" y="87.0" text-anchor="middle" font-size="12" font-weight="600">99</text>
<rect x="364.5" y="304.3" width="26" height="1.7" rx="2" fill="#14b8a6"/>
<text x="377.5" y="301.0" text-anchor="middle" font-size="12" font-weight="600">0</text>
<rect x="395.5" y="196.9" width="26" height="109.1" rx="2" fill="#60a5fa"/>
<path d="M408.5 217.8 V175.9 M404.5 175.9 h8 M404.5 217.8 h8" stroke="#6b7280" stroke-width="1.2"/>
<text x="408.5" y="170.9" text-anchor="middle" font-size="12" font-weight="600">51</text>
<rect x="426.5" y="304.3" width="26" height="1.7" rx="2" fill="#f59e0b"/>
<text x="439.5" y="301.0" text-anchor="middle" font-size="12" font-weight="600">0</text>
<rect x="457.5" y="304.3" width="26" height="1.7" rx="2" fill="#111827"/>
<text x="470.5" y="301.0" text-anchor="middle" font-size="12" font-weight="600">0</text>
<text x="393.0" y="334" text-anchor="middle" font-weight="600">π0.5</text>
<rect x="527.2" y="128.4" width="26" height="177.6" rx="2" fill="#9ca3af"/>
<path d="M540.2 144.1 V112.6 M536.2 112.6 h8 M536.2 144.1 h8" stroke="#6b7280" stroke-width="1.2"/>
<text x="540.2" y="107.6" text-anchor="middle" font-size="12" font-weight="600">83</text>
<rect x="558.2" y="139.1" width="26" height="166.9" rx="2" fill="#86efac"/>
<path d="M571.2 156.5 V121.7 M567.2 121.7 h8 M567.2 156.5 h8" stroke="#6b7280" stroke-width="1.2"/>
<text x="571.2" y="116.7" text-anchor="middle" font-size="12" font-weight="600">78</text>
<rect x="589.2" y="304.3" width="26" height="1.7" rx="2" fill="#14b8a6"/>
<text x="602.2" y="301.0" text-anchor="middle" font-size="12" font-weight="600">0</text>
<rect x="620.2" y="235.4" width="26" height="70.6" rx="2" fill="#60a5fa"/>
<path d="M633.2 255.1 V215.7 M629.2 215.7 h8 M629.2 255.1 h8" stroke="#6b7280" stroke-width="1.2"/>
<text x="633.2" y="210.7" text-anchor="middle" font-size="12" font-weight="600">33</text>
<rect x="651.2" y="297.4" width="26" height="8.6" rx="2" fill="#f59e0b"/>
<path d="M664.2 305.7 V289.2 M660.2 289.2 h8 M660.2 305.7 h8" stroke="#6b7280" stroke-width="1.2"/>
<text x="664.2" y="284.2" text-anchor="middle" font-size="12" font-weight="600">4</text>
<rect x="682.2" y="304.3" width="26" height="1.7" rx="2" fill="#111827"/>
<text x="695.2" y="301.0" text-anchor="middle" font-size="12" font-weight="600">0</text>
<text x="617.7" y="334" text-anchor="middle" font-weight="600">SmolVLA</text>
</svg>
